<svg width="34" height="25" viewBox="0 0 34 25" fill="none" xmlns="http://www.w3.org/2000/svg">
<path d="M18.4155 24.1397V9.20715C18.4155 8.92156 17.3976 8.20584 17.0659 8.20584H9.18604V4.72302H21.1582C22.0446 4.72302 23.4299 5.42307 24.0446 6.05955C24.6593 6.69604 25.3811 8.06479 25.3811 8.94594V24.1397H18.4155Z" fill="#FAFAFA"/>
<path d="M7.75128 4.72302V15.1279C7.75128 15.4135 8.76914 16.1293 9.10087 16.1293H16.9808V19.6121H5.00856C4.12218 19.6121 2.73689 18.912 2.12218 18.2755C1.50746 17.6391 0.785645 16.2703 0.785645 15.3892V10.4018L7.75128 4.72302Z" fill="#FAFAFA"/>
<path d="M8.01249 20.9477V24.1397H0.785645V17.8506C0.785645 18.4958 1.52226 19.511 2.12218 19.9673C2.73602 20.434 4.12131 20.9477 5.00856 20.9477H8.01249Z" fill="#FAFAFA"/>
<path d="M32.2383 9.25061H27.6523V24.1397H32.2383V9.25061Z" fill="#FAFAFA"/>
<path d="M33.1296 0.581909H26.7612V7.31507H33.1296V0.581909Z" fill="#FAFAFA"/>
</svg>
