<svg width="46" height="47" viewBox="0 0 46 47" fill="none" xmlns="http://www.w3.org/2000/svg">
<rect x="1.5" y="1.625" width="43" height="43" rx="21.5" stroke="#0067B3" stroke-width="3"/>
<circle cx="23" cy="23.125" r="20" fill="white"/>
<path d="M30.833 31.3128C30.6585 31.371 29.998 31.1738 29.948 31.0239L28.0663 25.4012L31.9051 27.3148C32.3422 27.5329 33.2099 27.5092 33.666 27.3657C34.133 27.2185 34.8226 26.7051 35.0416 26.2653L38 20.3309L36.2737 19.4704L34.3265 23.3767C34.2448 23.5412 33.6378 23.8692 33.497 23.7983L28.1908 21.1532L32.2586 19.7921C32.7211 19.6376 33.3189 19.007 33.5397 18.5827C33.7659 18.1483 33.8904 17.2978 33.7341 16.8317L31.6298 10.5429L29.8008 11.1553L31.1864 15.2943C31.2446 15.4687 31.0474 16.1293 30.8975 16.1793L25.2751 18.0611L27.1886 14.222C27.4067 13.785 27.3831 12.9172 27.2395 12.4611C27.0923 11.994 26.579 11.3044 26.1392 11.0854L20.2033 8.125L19.3429 9.85144L23.249 11.7987C23.4134 11.8805 23.7414 12.4874 23.6705 12.6283L21.0256 17.9348L19.6645 13.8668C19.5101 13.4043 18.8795 12.8064 18.4552 12.5856C18.0209 12.3593 17.1705 12.2348 16.7043 12.3911L10.416 14.4955L11.0283 16.3247L15.167 14.939C15.3415 14.8808 16.002 15.078 16.052 15.2279L17.9337 20.8506L14.0949 18.937C13.6578 18.719 12.7901 18.7426 12.334 18.8861C11.867 19.0333 11.1774 19.5467 10.9584 19.9865L8 25.9209L9.72633 26.7814L11.6735 22.8751C11.7552 22.7107 12.3622 22.3826 12.503 22.4535L17.8092 25.0986L13.7414 26.4597C13.2789 26.6142 12.6811 27.2448 12.4603 27.6692C12.2341 28.1035 12.1096 28.954 12.2659 29.4201L14.3702 35.7089L16.1992 35.0965L14.8136 30.9576C14.7554 30.7831 14.9526 30.1225 15.1025 30.0725L20.7249 28.1907L18.8114 32.0298C18.5933 32.4668 18.6169 33.3346 18.7605 33.7907C18.9077 34.2578 19.421 34.9474 19.8608 35.1664L25.7948 38.125L26.6553 36.3986L22.7492 34.4513C22.5848 34.3695 22.2568 33.7626 22.3276 33.6217L24.9726 28.3152L26.3336 32.3832C26.4881 32.8457 27.1187 33.4436 27.543 33.6644C27.9773 33.8907 28.8277 34.0152 29.2938 33.8589L35.5822 31.7544L34.9698 29.9253L30.8312 31.311L30.833 31.3128ZM22.4267 24.9387L21.9478 25.9L21.3127 24.0028L20.2942 24.3435L21.1864 22.5535L20.2251 22.0746L22.1223 21.4395L21.7816 20.4209L23.5715 21.3132L24.0503 20.3518L24.6854 22.2491L25.704 21.9083L24.8117 23.6984L25.773 24.1772L23.8759 24.8124L24.2166 25.831L22.4267 24.9387Z" fill="#0067B3"/>
</svg>
