<svg width="18" height="18" viewBox="0 0 18 18" fill="none" xmlns="http://www.w3.org/2000/svg">
<path fill-rule="evenodd" clip-rule="evenodd" d="M3.17932 7.79348C3.19013 4.61304 5.77714 2.04354 8.95758 2.05431C12.138 2.06515 14.7075 4.65217 14.6967 7.83261V7.89783C14.6576 9.96522 13.5032 11.8761 12.088 13.3696C11.2787 14.21 10.3748 14.9541 9.39454 15.587C9.13242 15.8137 8.74362 15.8137 8.4815 15.587C7.02012 14.6358 5.73752 13.4348 4.69236 12.0391C3.76083 10.822 3.23195 9.3448 3.17932 7.81304V7.79348Z" stroke="#008ECC" stroke-linecap="round" stroke-linejoin="round"/>
<path d="M8.938 9.75C9.95732 9.75 10.7837 8.92367 10.7837 7.90435C10.7837 6.88502 9.95732 6.0587 8.938 6.0587C7.91867 6.0587 7.09235 6.88502 7.09235 7.90435C7.09235 8.92367 7.91867 9.75 8.938 9.75Z" stroke="#008ECC" stroke-linecap="round" stroke-linejoin="round"/>
</svg>
