<svg width="23" height="23" viewBox="0 0 23 23" fill="none" xmlns="http://www.w3.org/2000/svg">
<path d="M3.33049 20.0721L20.3643 20.1366C20.5524 20.0592 20.6931 19.7089 20.7168 19.5144C20.95 17.6058 20.5148 15.2578 20.7351 13.2998C21.1327 12.2424 22.4845 12.2091 22.8564 13.2826C22.7177 15.4641 23.0595 17.9024 22.866 20.0517C22.7693 21.1274 21.9655 22.144 20.8758 22.36H2.92428C1.96464 22.1708 1.3016 21.41 1.01253 20.5105L0.934082 2.74061C1.02972 1.67673 1.79163 0.729991 2.82542 0.440918L10.0995 0.461336C11.0592 0.901931 11.0269 2.08616 10.078 2.53643L3.78398 2.58264C3.48846 2.59231 3.237 2.72234 3.13491 3.00819L3.08225 19.3005L3.33049 20.0732V20.0721Z" fill="#FAFAFA"/>
<path d="M20.7113 4.4106L20.3878 4.57072L12.4314 12.5186C11.4287 13.1473 10.3294 12.1468 10.6572 11.0668L18.9919 2.58375H16.0367C15.1297 2.58375 14.8321 0.708531 15.9518 0.45707C17.8378 0.578502 20.1106 0.216355 21.9493 0.432354C22.4683 0.493607 22.8036 0.842859 22.8627 1.34578C23.0798 3.18123 22.7144 5.46051 22.838 7.34324C22.5865 8.463 20.7113 8.16533 20.7113 7.25835V4.4106Z" fill="#FAFAFA"/>
</svg>
