<svg width="517" height="207" viewBox="0 0 517 207" fill="none" xmlns="http://www.w3.org/2000/svg">
<rect width="517" height="207" rx="16" fill="#313131"/>
<rect x="26.581" y="20" width="131.576" height="36" rx="8" fill="#494949"/>
<path d="M52.0263 37.9297H49.12L49.1044 36.4141H51.5966C52.0237 36.4141 52.3805 36.3542 52.6669 36.2344C52.9534 36.1146 53.1695 35.9401 53.3154 35.7109C53.4664 35.4818 53.5419 35.2031 53.5419 34.875C53.5419 34.5104 53.4716 34.2135 53.331 33.9844C53.1956 33.7552 52.982 33.5885 52.6904 33.4844C52.3987 33.375 52.0289 33.3203 51.581 33.3203H49.8154V43H47.6669V31.625H51.581C52.2268 31.625 52.8023 31.6875 53.3075 31.8125C53.818 31.9323 54.2502 32.1198 54.6044 32.375C54.9586 32.6302 55.2268 32.9505 55.4091 33.3359C55.5966 33.7214 55.6904 34.1797 55.6904 34.7109C55.6904 35.1797 55.581 35.612 55.3622 36.0078C55.1487 36.3984 54.818 36.7161 54.37 36.9609C53.9273 37.2057 53.3648 37.3464 52.6825 37.3828L52.0263 37.9297ZM51.9325 43H48.4872L49.3857 41.3125H51.9325C52.3596 41.3125 52.7112 41.2422 52.9872 41.1016C53.2685 40.9609 53.4768 40.7682 53.6122 40.5234C53.7529 40.2734 53.8232 39.987 53.8232 39.6641C53.8232 39.3099 53.7607 39.0026 53.6357 38.7422C53.5159 38.4818 53.3232 38.2812 53.0575 38.1406C52.7971 38 52.4534 37.9297 52.0263 37.9297H49.7919L49.8075 36.4141H52.6513L53.1435 37C53.7997 37.0052 54.3336 37.1354 54.745 37.3906C55.1617 37.6458 55.469 37.974 55.6669 38.375C55.8648 38.776 55.9638 39.2083 55.9638 39.6719C55.9638 40.401 55.8049 41.013 55.4872 41.5078C55.1747 42.0026 54.7164 42.375 54.1122 42.625C53.5133 42.875 52.7867 43 51.9325 43ZM61.4638 43.1562C60.8232 43.1562 60.2476 43.0521 59.7372 42.8438C59.2268 42.6354 58.7919 42.3464 58.4325 41.9766C58.0784 41.6016 57.8049 41.1667 57.6122 40.6719C57.4247 40.1719 57.331 39.6354 57.331 39.0625V38.75C57.331 38.099 57.4247 37.5078 57.6122 36.9766C57.7997 36.4401 58.0654 35.9792 58.4091 35.5938C58.7529 35.2083 59.1643 34.9115 59.6435 34.7031C60.1226 34.4948 60.6513 34.3906 61.2294 34.3906C61.8284 34.3906 62.357 34.4922 62.8154 34.6953C63.2737 34.8932 63.6565 35.1745 63.9638 35.5391C64.2711 35.9036 64.5029 36.3411 64.6591 36.8516C64.8154 37.3568 64.8935 37.9167 64.8935 38.5312V39.3984H58.2685V37.9766H62.8622V37.8203C62.8518 37.4922 62.7893 37.1927 62.6747 36.9219C62.5601 36.6458 62.3831 36.4271 62.1435 36.2656C61.9039 36.099 61.594 36.0156 61.2138 36.0156C60.9065 36.0156 60.6383 36.0833 60.4091 36.2188C60.1851 36.349 59.9976 36.5365 59.8466 36.7812C59.7008 37.0208 59.5914 37.3073 59.5185 37.6406C59.4456 37.974 59.4091 38.3438 59.4091 38.75V39.0625C59.4091 39.4167 59.456 39.7448 59.5497 40.0469C59.6487 40.349 59.7919 40.612 59.9794 40.8359C60.1721 41.0547 60.4013 41.2266 60.6669 41.3516C60.9377 41.4714 61.245 41.5312 61.5888 41.5312C62.0211 41.5312 62.4117 41.4479 62.7607 41.2812C63.1148 41.1094 63.4221 40.8568 63.6825 40.5234L64.7216 41.6016C64.5445 41.862 64.3049 42.112 64.0029 42.3516C63.706 42.5911 63.3466 42.7865 62.9247 42.9375C62.5029 43.0833 62.0159 43.1562 61.4638 43.1562ZM68.3388 36.1719V46.25H66.2685V34.5469H68.1825L68.3388 36.1719ZM73.7685 38.6875V38.8516C73.7685 39.4661 73.6956 40.0365 73.5497 40.5625C73.4091 41.0833 73.2008 41.5391 72.9247 41.9297C72.6487 42.3151 72.3049 42.6172 71.8935 42.8359C71.4872 43.0495 71.0185 43.1562 70.4872 43.1562C69.9664 43.1562 69.5133 43.0573 69.1279 42.8594C68.7424 42.6562 68.4169 42.3698 68.1513 42C67.8857 41.6302 67.6721 41.2005 67.5107 40.7109C67.3544 40.2161 67.2372 39.6771 67.1591 39.0938V38.5703C67.2372 37.9505 67.3544 37.388 67.5107 36.8828C67.6721 36.3724 67.8857 35.9323 68.1513 35.5625C68.4169 35.1875 68.7398 34.8984 69.12 34.6953C69.5055 34.4922 69.956 34.3906 70.4716 34.3906C71.0081 34.3906 71.4794 34.4922 71.8857 34.6953C72.2971 34.8984 72.6435 35.1901 72.9247 35.5703C73.206 35.9505 73.4169 36.4036 73.5575 36.9297C73.6982 37.4557 73.7685 38.0417 73.7685 38.6875ZM71.6982 38.8516V38.6875C71.6982 38.3125 71.6643 37.9661 71.5966 37.6484C71.5289 37.3255 71.4247 37.0443 71.2841 36.8047C71.1435 36.5599 70.9612 36.3698 70.7372 36.2344C70.5133 36.099 70.2424 36.0312 69.9247 36.0312C69.607 36.0312 69.3336 36.0833 69.1044 36.1875C68.8752 36.2917 68.6877 36.4401 68.5419 36.6328C68.3961 36.8255 68.2815 37.0547 68.1982 37.3203C68.12 37.5807 68.068 37.8698 68.0419 38.1875V39.4844C68.0888 39.8698 68.1799 40.2161 68.3154 40.5234C68.4508 40.8307 68.6487 41.0755 68.9091 41.2578C69.1747 41.4401 69.5185 41.5312 69.9404 41.5312C70.2581 41.5312 70.5289 41.4609 70.7529 41.3203C70.9768 41.1797 71.1591 40.987 71.2997 40.7422C71.4404 40.4922 71.5419 40.2057 71.6044 39.8828C71.6669 39.5599 71.6982 39.2161 71.6982 38.8516ZM78.9091 34.5469V43H76.8388V34.5469H78.9091ZM81.6591 34.5469V36.1562H74.1357V34.5469H81.6591ZM84.956 40.0547L88.0341 34.5469H90.1044V43H88.0341V37.4844L84.956 43H82.8857V34.5469H84.956V40.0547ZM94.1825 34.5469V43H92.12V34.5469H94.1825ZM99.6904 34.5469L95.9638 39.7344H93.7685L93.5107 37.8438H95.0341L97.0888 34.5469H99.6904ZM97.2138 43L94.9013 39.375L96.62 38.2969L99.956 43H97.2138ZM105.558 41.2031V37.3047C105.558 37.0182 105.508 36.7708 105.409 36.5625C105.31 36.3542 105.159 36.1927 104.956 36.0781C104.753 35.9635 104.495 35.9062 104.183 35.9062C103.906 35.9062 103.664 35.9531 103.456 36.0469C103.253 36.1406 103.097 36.2734 102.987 36.4453C102.878 36.612 102.823 36.8047 102.823 37.0234H100.753C100.753 36.6745 100.836 36.3438 101.003 36.0312C101.17 35.7135 101.406 35.4323 101.714 35.1875C102.026 34.9375 102.399 34.7422 102.831 34.6016C103.268 34.4609 103.758 34.3906 104.3 34.3906C104.94 34.3906 105.511 34.5 106.011 34.7188C106.516 34.9323 106.912 35.2552 107.198 35.6875C107.49 36.1198 107.636 36.6641 107.636 37.3203V41.0078C107.636 41.4297 107.662 41.7917 107.714 42.0938C107.771 42.3906 107.854 42.6484 107.964 42.8672V43H105.862C105.763 42.7865 105.688 42.5156 105.636 42.1875C105.584 41.8542 105.558 41.526 105.558 41.2031ZM105.847 37.8516L105.862 39.0781H104.558C104.235 39.0781 103.951 39.112 103.706 39.1797C103.461 39.2422 103.261 39.3359 103.104 39.4609C102.948 39.5807 102.831 39.7266 102.753 39.8984C102.675 40.0651 102.636 40.2552 102.636 40.4688C102.636 40.6771 102.683 40.8646 102.776 41.0312C102.875 41.1979 103.016 41.3307 103.198 41.4297C103.386 41.5234 103.604 41.5703 103.854 41.5703C104.219 41.5703 104.537 41.4974 104.808 41.3516C105.078 41.2005 105.289 41.0182 105.44 40.8047C105.591 40.5911 105.672 40.388 105.683 40.1953L106.276 41.0859C106.203 41.2995 106.094 41.526 105.948 41.7656C105.802 42.0052 105.615 42.2292 105.386 42.4375C105.156 42.6458 104.88 42.8177 104.558 42.9531C104.235 43.0885 103.86 43.1562 103.433 43.1562C102.886 43.1562 102.396 43.0469 101.964 42.8281C101.531 42.6094 101.19 42.3099 100.94 41.9297C100.69 41.5495 100.565 41.1172 100.565 40.6328C100.565 40.1849 100.649 39.7891 100.815 39.4453C100.982 39.1016 101.229 38.8125 101.558 38.5781C101.886 38.3385 102.292 38.1589 102.776 38.0391C103.266 37.9141 103.826 37.8516 104.456 37.8516H105.847ZM115.175 34.5469V36.1797H111.034V34.5469H115.175ZM116.729 34.5469V43H114.667V34.5469H116.729ZM110.518 34.5469H112.558L112.331 38.7656C112.295 39.3854 112.229 39.9297 112.136 40.3984C112.042 40.862 111.917 41.2604 111.761 41.5938C111.604 41.9219 111.414 42.1901 111.19 42.3984C110.966 42.6068 110.706 42.7604 110.409 42.8594C110.117 42.9531 109.789 43 109.425 43H108.792L108.768 41.3359L109.065 41.3125C109.248 41.2969 109.404 41.2474 109.534 41.1641C109.67 41.0807 109.784 40.9609 109.878 40.8047C109.977 40.6484 110.058 40.4479 110.12 40.2031C110.188 39.9531 110.24 39.6615 110.276 39.3281C110.318 38.9896 110.347 38.599 110.362 38.1562L110.518 34.5469ZM120.089 37.1484H122.558C123.308 37.1484 123.946 37.2734 124.472 37.5234C125.003 37.7682 125.406 38.112 125.683 38.5547C125.964 38.9922 126.104 39.5 126.104 40.0781C126.104 40.4948 126.024 40.8828 125.862 41.2422C125.706 41.5964 125.477 41.9062 125.175 42.1719C124.873 42.4323 124.5 42.6354 124.058 42.7812C123.62 42.9271 123.12 43 122.558 43H118.761V34.5469H120.831V41.3828H122.558C122.917 41.3828 123.203 41.3229 123.417 41.2031C123.636 41.0781 123.792 40.9193 123.886 40.7266C123.985 40.5286 124.034 40.3177 124.034 40.0938C124.034 39.8646 123.985 39.651 123.886 39.4531C123.792 39.25 123.636 39.0859 123.417 38.9609C123.203 38.8359 122.917 38.7734 122.558 38.7734H120.089V37.1484ZM133.268 38.0156V39.6328H128.933V38.0156H133.268ZM129.581 34.5469V43H127.511V34.5469H129.581ZM134.714 34.5469V43H132.636V34.5469H134.714ZM138.058 37.1484H140.526C141.276 37.1484 141.914 37.2734 142.44 37.5234C142.972 37.7682 143.375 38.112 143.651 38.5547C143.933 38.9922 144.073 39.5 144.073 40.0781C144.073 40.4948 143.992 40.8828 143.831 41.2422C143.675 41.5964 143.446 41.9062 143.143 42.1719C142.841 42.4323 142.469 42.6354 142.026 42.7812C141.589 42.9271 141.089 43 140.526 43H136.729V34.5469H138.8V41.3828H140.526C140.886 41.3828 141.172 41.3229 141.386 41.2031C141.604 41.0781 141.761 40.9193 141.854 40.7266C141.953 40.5286 142.003 40.3177 142.003 40.0938C142.003 39.8646 141.953 39.651 141.854 39.4531C141.761 39.25 141.604 39.0859 141.386 38.9609C141.172 38.8359 140.886 38.7734 140.526 38.7734H138.058V37.1484ZM147.542 34.5469V43H145.472V34.5469H147.542ZM151.737 40.0547L154.815 34.5469H156.886V43H154.815V37.4844L151.737 43H149.667V34.5469H151.737V40.0547ZM154.433 31.2266H155.933C155.933 31.6641 155.826 32.0521 155.612 32.3906C155.399 32.7292 155.094 32.9948 154.698 33.1875C154.308 33.375 153.844 33.4688 153.308 33.4688C152.5 33.4688 151.86 33.2604 151.386 32.8438C150.912 32.4271 150.675 31.888 150.675 31.2266H152.175C152.175 31.5026 152.261 31.75 152.433 31.9688C152.604 32.1875 152.896 32.2969 153.308 32.2969C153.719 32.2969 154.008 32.1875 154.175 31.9688C154.347 31.75 154.433 31.5026 154.433 31.2266Z" fill="white"/>
<path d="M45.9258 141.98V144.512H36.9492V141.98H45.9258ZM37.8281 134.938V152H34.6055V134.938H37.8281ZM48.3164 134.938V152H45.0938V134.938H48.3164ZM58.3477 149.305V143.457C58.3477 143.027 58.2734 142.656 58.125 142.344C57.9766 142.031 57.75 141.789 57.4453 141.617C57.1406 141.445 56.7539 141.359 56.2852 141.359C55.8711 141.359 55.5078 141.43 55.1953 141.57C54.8906 141.711 54.6562 141.91 54.4922 142.168C54.3281 142.418 54.2461 142.707 54.2461 143.035H51.1406C51.1406 142.512 51.2656 142.016 51.5156 141.547C51.7656 141.07 52.1211 140.648 52.582 140.281C53.0508 139.906 53.6094 139.613 54.2578 139.402C54.9141 139.191 55.6484 139.086 56.4609 139.086C57.4219 139.086 58.2773 139.25 59.0273 139.578C59.7852 139.898 60.3789 140.383 60.8086 141.031C61.2461 141.68 61.4648 142.496 61.4648 143.48V149.012C61.4648 149.645 61.5039 150.188 61.582 150.641C61.668 151.086 61.793 151.473 61.957 151.801V152H58.8047C58.6562 151.68 58.543 151.273 58.4648 150.781C58.3867 150.281 58.3477 149.789 58.3477 149.305ZM58.7812 144.277L58.8047 146.117H56.8477C56.3633 146.117 55.9375 146.168 55.5703 146.27C55.2031 146.363 54.9023 146.504 54.668 146.691C54.4336 146.871 54.2578 147.09 54.1406 147.348C54.0234 147.598 53.9648 147.883 53.9648 148.203C53.9648 148.516 54.0352 148.797 54.1758 149.047C54.3242 149.297 54.5352 149.496 54.8086 149.645C55.0898 149.785 55.418 149.855 55.793 149.855C56.3398 149.855 56.8164 149.746 57.2227 149.527C57.6289 149.301 57.9453 149.027 58.1719 148.707C58.3984 148.387 58.5195 148.082 58.5352 147.793L59.4258 149.129C59.3164 149.449 59.1523 149.789 58.9336 150.148C58.7148 150.508 58.4336 150.844 58.0898 151.156C57.7461 151.469 57.332 151.727 56.8477 151.93C56.3633 152.133 55.8008 152.234 55.1602 152.234C54.3398 152.234 53.6055 152.07 52.957 151.742C52.3086 151.414 51.7969 150.965 51.4219 150.395C51.0469 149.824 50.8594 149.176 50.8594 148.449C50.8594 147.777 50.9844 147.184 51.2344 146.668C51.4844 146.152 51.8555 145.719 52.3477 145.367C52.8398 145.008 53.4492 144.738 54.1758 144.559C54.9102 144.371 55.75 144.277 56.6953 144.277H58.7812ZM69.457 149.797C69.8945 149.797 70.2852 149.711 70.6289 149.539C70.9727 149.367 71.2461 149.125 71.4492 148.812C71.6602 148.5 71.7734 148.137 71.7891 147.723H74.707C74.6914 148.582 74.4492 149.352 73.9805 150.031C73.5117 150.711 72.8867 151.25 72.1055 151.648C71.332 152.039 70.4648 152.234 69.5039 152.234C68.5273 152.234 67.6758 152.07 66.9492 151.742C66.2227 151.414 65.6172 150.957 65.1328 150.371C64.6562 149.785 64.2969 149.105 64.0547 148.332C63.8203 147.559 63.7031 146.73 63.7031 145.848V145.473C63.7031 144.59 63.8203 143.762 64.0547 142.988C64.2969 142.215 64.6562 141.535 65.1328 140.949C65.6172 140.363 66.2227 139.906 66.9492 139.578C67.6758 139.25 68.5234 139.086 69.4922 139.086C70.5156 139.086 71.4141 139.285 72.1875 139.684C72.9688 140.082 73.5781 140.645 74.0156 141.371C74.4609 142.098 74.6914 142.953 74.707 143.938H71.7891C71.7734 143.484 71.6719 143.078 71.4844 142.719C71.2969 142.359 71.0312 142.07 70.6875 141.852C70.3438 141.633 69.9258 141.523 69.4336 141.523C68.9102 141.523 68.4727 141.633 68.1211 141.852C67.7773 142.07 67.5078 142.371 67.3125 142.754C67.125 143.129 66.9922 143.551 66.9141 144.02C66.8438 144.48 66.8086 144.965 66.8086 145.473V145.848C66.8086 146.363 66.8438 146.855 66.9141 147.324C66.9922 147.793 67.125 148.215 67.3125 148.59C67.5078 148.957 67.7773 149.25 68.1211 149.469C68.4727 149.688 68.918 149.797 69.457 149.797ZM82.9219 139.32V152H79.8164V139.32H82.9219ZM87.0469 139.32V141.734H75.7617V139.32H87.0469ZM93.7148 152.234C92.7539 152.234 91.8906 152.078 91.125 151.766C90.3594 151.453 89.707 151.02 89.168 150.465C88.6367 149.902 88.2266 149.25 87.9375 148.508C87.6562 147.758 87.5156 146.953 87.5156 146.094V145.625C87.5156 144.648 87.6562 143.762 87.9375 142.965C88.2188 142.16 88.6172 141.469 89.1328 140.891C89.6484 140.312 90.2656 139.867 90.9844 139.555C91.7031 139.242 92.4961 139.086 93.3633 139.086C94.2617 139.086 95.0547 139.238 95.7422 139.543C96.4297 139.84 97.0039 140.262 97.4648 140.809C97.9258 141.355 98.2734 142.012 98.5078 142.777C98.7422 143.535 98.8594 144.375 98.8594 145.297V146.598H88.9219V144.465H95.8125V144.23C95.7969 143.738 95.7031 143.289 95.5312 142.883C95.3594 142.469 95.0938 142.141 94.7344 141.898C94.375 141.648 93.9102 141.523 93.3398 141.523C92.8789 141.523 92.4766 141.625 92.1328 141.828C91.7969 142.023 91.5156 142.305 91.2891 142.672C91.0703 143.031 90.9062 143.461 90.7969 143.961C90.6875 144.461 90.6328 145.016 90.6328 145.625V146.094C90.6328 146.625 90.7031 147.117 90.8438 147.57C90.9922 148.023 91.207 148.418 91.4883 148.754C91.7773 149.082 92.1211 149.34 92.5195 149.527C92.9258 149.707 93.3867 149.797 93.9023 149.797C94.5508 149.797 95.1367 149.672 95.6602 149.422C96.1914 149.164 96.6523 148.785 97.043 148.285L98.6016 149.902C98.3359 150.293 97.9766 150.668 97.5234 151.027C97.0781 151.387 96.5391 151.68 95.9062 151.906C95.2734 152.125 94.543 152.234 93.7148 152.234ZM109.594 144.523V146.949H103.09V144.523H109.594ZM104.062 139.32V152H100.957V139.32H104.062ZM111.762 139.32V152H108.645V139.32H111.762ZM123.234 144.523V146.949H116.73V144.523H123.234ZM117.703 139.32V152H114.598V139.32H117.703ZM125.402 139.32V152H122.285V139.32H125.402ZM127.664 145.789V145.543C127.664 144.613 127.797 143.758 128.062 142.977C128.328 142.188 128.715 141.504 129.223 140.926C129.73 140.348 130.352 139.898 131.086 139.578C131.82 139.25 132.656 139.086 133.594 139.086C134.547 139.086 135.391 139.25 136.125 139.578C136.867 139.898 137.492 140.348 138 140.926C138.508 141.504 138.895 142.188 139.16 142.977C139.426 143.758 139.559 144.613 139.559 145.543V145.789C139.559 146.711 139.426 147.566 139.16 148.355C138.895 149.137 138.508 149.82 138 150.406C137.492 150.984 136.871 151.434 136.137 151.754C135.402 152.074 134.562 152.234 133.617 152.234C132.68 152.234 131.84 152.074 131.098 151.754C130.355 151.434 129.73 150.984 129.223 150.406C128.715 149.82 128.328 149.137 128.062 148.355C127.797 147.566 127.664 146.711 127.664 145.789ZM130.758 145.543V145.789C130.758 146.344 130.812 146.863 130.922 147.348C131.031 147.832 131.199 148.258 131.426 148.625C131.652 148.992 131.945 149.281 132.305 149.492C132.672 149.695 133.109 149.797 133.617 149.797C134.117 149.797 134.547 149.695 134.906 149.492C135.266 149.281 135.559 148.992 135.785 148.625C136.02 148.258 136.191 147.832 136.301 147.348C136.41 146.863 136.465 146.344 136.465 145.789V145.543C136.465 144.996 136.41 144.484 136.301 144.008C136.191 143.523 136.02 143.098 135.785 142.73C135.559 142.355 135.262 142.062 134.895 141.852C134.535 141.633 134.102 141.523 133.594 141.523C133.094 141.523 132.664 141.633 132.305 141.852C131.945 142.062 131.652 142.355 131.426 142.73C131.199 143.098 131.031 143.523 130.922 144.008C130.812 144.484 130.758 144.996 130.758 145.543ZM147.504 152.234C146.543 152.234 145.68 152.078 144.914 151.766C144.148 151.453 143.496 151.02 142.957 150.465C142.426 149.902 142.016 149.25 141.727 148.508C141.445 147.758 141.305 146.953 141.305 146.094V145.625C141.305 144.648 141.445 143.762 141.727 142.965C142.008 142.16 142.406 141.469 142.922 140.891C143.438 140.312 144.055 139.867 144.773 139.555C145.492 139.242 146.285 139.086 147.152 139.086C148.051 139.086 148.844 139.238 149.531 139.543C150.219 139.84 150.793 140.262 151.254 140.809C151.715 141.355 152.062 142.012 152.297 142.777C152.531 143.535 152.648 144.375 152.648 145.297V146.598H142.711V144.465H149.602V144.23C149.586 143.738 149.492 143.289 149.32 142.883C149.148 142.469 148.883 142.141 148.523 141.898C148.164 141.648 147.699 141.523 147.129 141.523C146.668 141.523 146.266 141.625 145.922 141.828C145.586 142.023 145.305 142.305 145.078 142.672C144.859 143.031 144.695 143.461 144.586 143.961C144.477 144.461 144.422 145.016 144.422 145.625V146.094C144.422 146.625 144.492 147.117 144.633 147.57C144.781 148.023 144.996 148.418 145.277 148.754C145.566 149.082 145.91 149.34 146.309 149.527C146.715 149.707 147.176 149.797 147.691 149.797C148.34 149.797 148.926 149.672 149.449 149.422C149.98 149.164 150.441 148.785 150.832 148.285L152.391 149.902C152.125 150.293 151.766 150.668 151.312 151.027C150.867 151.387 150.328 151.68 149.695 151.906C149.062 152.125 148.332 152.234 147.504 152.234ZM163.828 147.582L168.445 139.32H171.551V152H168.445V143.727L163.828 152H160.723V139.32H163.828V147.582ZM179.566 149.797C180.004 149.797 180.395 149.711 180.738 149.539C181.082 149.367 181.355 149.125 181.559 148.812C181.77 148.5 181.883 148.137 181.898 147.723H184.816C184.801 148.582 184.559 149.352 184.09 150.031C183.621 150.711 182.996 151.25 182.215 151.648C181.441 152.039 180.574 152.234 179.613 152.234C178.637 152.234 177.785 152.07 177.059 151.742C176.332 151.414 175.727 150.957 175.242 150.371C174.766 149.785 174.406 149.105 174.164 148.332C173.93 147.559 173.812 146.73 173.812 145.848V145.473C173.812 144.59 173.93 143.762 174.164 142.988C174.406 142.215 174.766 141.535 175.242 140.949C175.727 140.363 176.332 139.906 177.059 139.578C177.785 139.25 178.633 139.086 179.602 139.086C180.625 139.086 181.523 139.285 182.297 139.684C183.078 140.082 183.688 140.645 184.125 141.371C184.57 142.098 184.801 142.953 184.816 143.938H181.898C181.883 143.484 181.781 143.078 181.594 142.719C181.406 142.359 181.141 142.07 180.797 141.852C180.453 141.633 180.035 141.523 179.543 141.523C179.02 141.523 178.582 141.633 178.23 141.852C177.887 142.07 177.617 142.371 177.422 142.754C177.234 143.129 177.102 143.551 177.023 144.02C176.953 144.48 176.918 144.965 176.918 145.473V145.848C176.918 146.363 176.953 146.855 177.023 147.324C177.102 147.793 177.234 148.215 177.422 148.59C177.617 148.957 177.887 149.25 178.23 149.469C178.582 149.688 179.027 149.797 179.566 149.797ZM195.387 139.32V141.77H189.188V139.32H195.387ZM190.008 139.32V152H186.902V139.32H190.008ZM197.73 139.32V152H194.613V139.32H197.73ZM199.992 145.789V145.543C199.992 144.613 200.125 143.758 200.391 142.977C200.656 142.188 201.043 141.504 201.551 140.926C202.059 140.348 202.68 139.898 203.414 139.578C204.148 139.25 204.984 139.086 205.922 139.086C206.875 139.086 207.719 139.25 208.453 139.578C209.195 139.898 209.82 140.348 210.328 140.926C210.836 141.504 211.223 142.188 211.488 142.977C211.754 143.758 211.887 144.613 211.887 145.543V145.789C211.887 146.711 211.754 147.566 211.488 148.355C211.223 149.137 210.836 149.82 210.328 150.406C209.82 150.984 209.199 151.434 208.465 151.754C207.73 152.074 206.891 152.234 205.945 152.234C205.008 152.234 204.168 152.074 203.426 151.754C202.684 151.434 202.059 150.984 201.551 150.406C201.043 149.82 200.656 149.137 200.391 148.355C200.125 147.566 199.992 146.711 199.992 145.789ZM203.086 145.543V145.789C203.086 146.344 203.141 146.863 203.25 147.348C203.359 147.832 203.527 148.258 203.754 148.625C203.98 148.992 204.273 149.281 204.633 149.492C205 149.695 205.438 149.797 205.945 149.797C206.445 149.797 206.875 149.695 207.234 149.492C207.594 149.281 207.887 148.992 208.113 148.625C208.348 148.258 208.52 147.832 208.629 147.348C208.738 146.863 208.793 146.344 208.793 145.789V145.543C208.793 144.996 208.738 144.484 208.629 144.008C208.52 143.523 208.348 143.098 208.113 142.73C207.887 142.355 207.59 142.062 207.223 141.852C206.863 141.633 206.43 141.523 205.922 141.523C205.422 141.523 204.992 141.633 204.633 141.852C204.273 142.062 203.98 142.355 203.754 142.73C203.527 143.098 203.359 143.523 203.25 144.008C203.141 144.484 203.086 144.996 203.086 145.543ZM222.469 139.32V141.77H216.258V139.32H222.469ZM224.801 139.32V152H221.707V139.32H224.801ZM215.484 139.32H218.543L218.203 145.648C218.148 146.578 218.051 147.395 217.91 148.098C217.77 148.793 217.582 149.391 217.348 149.891C217.113 150.383 216.828 150.785 216.492 151.098C216.156 151.41 215.766 151.641 215.32 151.789C214.883 151.93 214.391 152 213.844 152H212.895L212.859 149.504L213.305 149.469C213.578 149.445 213.812 149.371 214.008 149.246C214.211 149.121 214.383 148.941 214.523 148.707C214.672 148.473 214.793 148.172 214.887 147.805C214.988 147.43 215.066 146.992 215.121 146.492C215.184 145.984 215.227 145.398 215.25 144.734L215.484 139.32ZM236.297 144.523V146.949H229.793V144.523H236.297ZM230.766 139.32V152H227.66V139.32H230.766ZM238.465 139.32V152H235.348V139.32H238.465ZM246.973 152.234C246.012 152.234 245.148 152.078 244.383 151.766C243.617 151.453 242.965 151.02 242.426 150.465C241.895 149.902 241.484 149.25 241.195 148.508C240.914 147.758 240.773 146.953 240.773 146.094V145.625C240.773 144.648 240.914 143.762 241.195 142.965C241.477 142.16 241.875 141.469 242.391 140.891C242.906 140.312 243.523 139.867 244.242 139.555C244.961 139.242 245.754 139.086 246.621 139.086C247.52 139.086 248.312 139.238 249 139.543C249.688 139.84 250.262 140.262 250.723 140.809C251.184 141.355 251.531 142.012 251.766 142.777C252 143.535 252.117 144.375 252.117 145.297V146.598H242.18V144.465H249.07V144.23C249.055 143.738 248.961 143.289 248.789 142.883C248.617 142.469 248.352 142.141 247.992 141.898C247.633 141.648 247.168 141.523 246.598 141.523C246.137 141.523 245.734 141.625 245.391 141.828C245.055 142.023 244.773 142.305 244.547 142.672C244.328 143.031 244.164 143.461 244.055 143.961C243.945 144.461 243.891 145.016 243.891 145.625V146.094C243.891 146.625 243.961 147.117 244.102 147.57C244.25 148.023 244.465 148.418 244.746 148.754C245.035 149.082 245.379 149.34 245.777 149.527C246.184 149.707 246.645 149.797 247.16 149.797C247.809 149.797 248.395 149.672 248.918 149.422C249.449 149.164 249.91 148.785 250.301 148.285L251.859 149.902C251.594 150.293 251.234 150.668 250.781 151.027C250.336 151.387 249.797 151.68 249.164 151.906C248.531 152.125 247.801 152.234 246.973 152.234ZM262.852 144.523V146.949H256.348V144.523H262.852ZM257.32 139.32V152H254.215V139.32H257.32ZM265.02 139.32V152H261.902V139.32H265.02ZM270.961 147.582L275.578 139.32H278.684V152H275.578V143.727L270.961 152H267.855V139.32H270.961V147.582ZM287.191 152.234C286.23 152.234 285.367 152.078 284.602 151.766C283.836 151.453 283.184 151.02 282.645 150.465C282.113 149.902 281.703 149.25 281.414 148.508C281.133 147.758 280.992 146.953 280.992 146.094V145.625C280.992 144.648 281.133 143.762 281.414 142.965C281.695 142.16 282.094 141.469 282.609 140.891C283.125 140.312 283.742 139.867 284.461 139.555C285.18 139.242 285.973 139.086 286.84 139.086C287.738 139.086 288.531 139.238 289.219 139.543C289.906 139.84 290.48 140.262 290.941 140.809C291.402 141.355 291.75 142.012 291.984 142.777C292.219 143.535 292.336 144.375 292.336 145.297V146.598H282.398V144.465H289.289V144.23C289.273 143.738 289.18 143.289 289.008 142.883C288.836 142.469 288.57 142.141 288.211 141.898C287.852 141.648 287.387 141.523 286.816 141.523C286.355 141.523 285.953 141.625 285.609 141.828C285.273 142.023 284.992 142.305 284.766 142.672C284.547 143.031 284.383 143.461 284.273 143.961C284.164 144.461 284.109 145.016 284.109 145.625V146.094C284.109 146.625 284.18 147.117 284.32 147.57C284.469 148.023 284.684 148.418 284.965 148.754C285.254 149.082 285.598 149.34 285.996 149.527C286.402 149.707 286.863 149.797 287.379 149.797C288.027 149.797 288.613 149.672 289.137 149.422C289.668 149.164 290.129 148.785 290.52 148.285L292.078 149.902C291.812 150.293 291.453 150.668 291 151.027C290.555 151.387 290.016 151.68 289.383 151.906C288.75 152.125 288.02 152.234 287.191 152.234Z" fill="white"/>
<mask id="mask0_1_121" style="mask-type:alpha" maskUnits="userSpaceOnUse" x="231" y="0" width="286" height="189">
<path d="M231.255 0H501C509.837 0 517 7.16344 517 16V189H231.255V0Z" fill="#D9D9D9"/>
</mask>
<g mask="url(#mask0_1_121)">
<ellipse cx="413.334" cy="38" rx="150.183" ry="113" fill="#404040"/>
<path d="M413.334 -84.5C458.378 -84.5 499.139 -70.7617 528.627 -48.5742C558.115 -26.3869 576.308 4.22662 576.308 38C576.308 71.7734 558.115 102.387 528.627 124.574C499.139 146.762 458.378 160.5 413.334 160.5C368.29 160.5 327.53 146.762 298.042 124.574C268.554 102.387 250.361 71.7735 250.361 38C250.361 4.22655 268.554 -26.3869 298.042 -48.5742C327.53 -70.7616 368.29 -84.4999 413.334 -84.5Z" stroke="#414141"/>
</g>
</svg>
